STARTFONT 2.1
FONT -Linotype-New Century Schoolbook-Medium-R-Normal--14-140-72-72-P-78-ISO8859-1
SIZE 14 72 72
FONTBOUNDINGBOX 19 20 -5 -4

STARTPROPERTIES 22
FONTNAME_REGISTRY "-"
FOUNDRY "Linotype"
FAMILY_NAME "New Century Schoolbook"
WEIGHT_NAME "Medium"
SLANT "R"
SETWIDTH_NAME "Normal"
ADD_STYLE_NAME ""
PIXEL_SIZE 14
POINT_SIZE 140
RESOLUTION_X 72
RESOLUTION_Y 72
SPACING "P"
CHARSET_REGISTRY "ISO8859"
CHARSET_ENCODING "1"
FULL_NAME "NewCenturySchlbk-Roman"
AVERAGE_WIDTH 78
WEIGHT 10
X_HEIGHT 7
QUAD_WIDTH 8
DEFAULT_CHAR 32
FONT_DESCENT 3
FONT_ASCENT 13
ENDPROPERTIES

CHARS 190

STARTCHAR space
ENCODING 32
SWIDTH 278 0
DWIDTH 4 0
BBX 1 1 0 0
BITMAP
00
ENDCHAR

STARTCHAR exclam
ENCODING 33
SWIDTH 296 0
DWIDTH 4 0
BBX 1 11 2 0
BITMAP
80
80
80
80
80
80
80
80
00
00
80
ENDCHAR

STARTCHAR quotedbl
ENCODING 34
SWIDTH 389 0
DWIDTH 5 0
BBX 4 3 1 8
BITMAP
90
90
90
ENDCHAR

STARTCHAR numbersign
ENCODING 35
SWIDTH 556 0
DWIDTH 8 0
BBX 7 10 0 0
BITMAP
24
24
24
FE
28
28
FE
48
48
48
ENDCHAR

STARTCHAR dollar
ENCODING 36
SWIDTH 556 0
DWIDTH 8 0
BBX 6 14 1 -2
BITMAP
20
78
A4
A4
A4
A0
78
24
A4
A4
A4
78
20
20
ENDCHAR

STARTCHAR percent
ENCODING 37
SWIDTH 833 0
DWIDTH 12 0
BBX 11 11 0 0
BITMAP
3080
4F00
8900
8A00
9600
6CC0
0920
0A20
1220
1240
2180
ENDCHAR

STARTCHAR ampersand
ENCODING 38
SWIDTH 815 0
DWIDTH 11 0
BBX 9 11 1 0
BITMAP
1800
2400
2400
2400
1800
3380
5100
8A00
8A00
8480
7B00
ENDCHAR

STARTCHAR quoteright
ENCODING 39
SWIDTH 204 0
DWIDTH 3 0
BBX 1 3 1 8
BITMAP
80
80
80
ENDCHAR

STARTCHAR parenleft
ENCODING 40
SWIDTH 333 0
DWIDTH 5 0
BBX 3 13 1 -2
BITMAP
20
40
40
80
80
80
80
80
80
80
40
40
20
ENDCHAR

STARTCHAR parenright
ENCODING 41
SWIDTH 333 0
DWIDTH 5 0
BBX 3 13 1 -2
BITMAP
80
40
40
20
20
20
20
20
20
20
40
40
80
ENDCHAR

STARTCHAR asterisk
ENCODING 42
SWIDTH 500 0
DWIDTH 7 0
BBX 5 6 1 4
BITMAP
20
A8
70
70
A8
20
ENDCHAR

STARTCHAR plus
ENCODING 43
SWIDTH 606 0
DWIDTH 8 0
BBX 7 7 1 0
BITMAP
10
10
10
FE
10
10
10
ENDCHAR

STARTCHAR comma
ENCODING 44
SWIDTH 278 0
DWIDTH 4 0
BBX 1 4 1 -3
BITMAP
80
80
80
80
ENDCHAR

STARTCHAR minus
ENCODING 45
SWIDTH 606 0
DWIDTH 8 0
BBX 7 1 1 3
BITMAP
FE
ENDCHAR

STARTCHAR period
ENCODING 46
SWIDTH 278 0
DWIDTH 4 0
BBX 1 1 1 0
BITMAP
80
ENDCHAR

STARTCHAR slash
ENCODING 47
SWIDTH 278 0
DWIDTH 4 0
BBX 5 11 0 0
BITMAP
18
10
10
20
20
20
40
40
40
80
80
ENDCHAR

STARTCHAR zero
ENCODING 48
SWIDTH 556 0
DWIDTH 8 0
BBX 6 11 1 0
BITMAP
30
48
84
84
84
84
84
84
84
48
30
ENDCHAR

STARTCHAR one
ENCODING 49
SWIDTH 556 0
DWIDTH 8 0
BBX 5 11 1 0
BITMAP
20
E0
20
20
20
20
20
20
20
20
F8
ENDCHAR

STARTCHAR two
ENCODING 50
SWIDTH 556 0
DWIDTH 8 0
BBX 6 11 1 0
BITMAP
78
CC
84
84
84
08
10
20
44
84
FC
ENDCHAR

STARTCHAR three
ENCODING 51
SWIDTH 556 0
DWIDTH 8 0
BBX 6 11 1 0
BITMAP
78
84
84
04
38
04
84
84
84
8C
78
ENDCHAR

STARTCHAR four
ENCODING 52
SWIDTH 556 0
DWIDTH 8 0
BBX 6 11 1 0
BITMAP
08
18
18
28
68
48
88
FC
08
08
1C
ENDCHAR

STARTCHAR five
ENCODING 53
SWIDTH 556 0
DWIDTH 8 0
BBX 6 11 1 0
BITMAP
84
F8
80
80
F8
8C
04
84
84
88
78
ENDCHAR

STARTCHAR six
ENCODING 54
SWIDTH 556 0
DWIDTH 8 0
BBX 6 11 1 0
BITMAP
38
44
84
80
B8
CC
84
84
84
48
38
ENDCHAR

STARTCHAR seven
ENCODING 55
SWIDTH 556 0
DWIDTH 8 0
BBX 5 11 1 0
BITMAP
F8
88
90
10
10
20
20
20
20
20
20
ENDCHAR

STARTCHAR eight
ENCODING 56
SWIDTH 556 0
DWIDTH 8 0
BBX 6 11 1 0
BITMAP
78
84
84
84
CC
78
84
84
84
84
78
ENDCHAR

STARTCHAR nine
ENCODING 57
SWIDTH 556 0
DWIDTH 8 0
BBX 6 11 1 0
BITMAP
78
4C
84
84
84
CC
74
04
84
88
70
ENDCHAR

STARTCHAR colon
ENCODING 58
SWIDTH 278 0
DWIDTH 4 0
BBX 1 7 2 0
BITMAP
80
00
00
00
00
00
80
ENDCHAR

STARTCHAR semicolon
ENCODING 59
SWIDTH 278 0
DWIDTH 4 0
BBX 1 10 2 -3
BITMAP
80
00
00
00
00
00
80
80
80
80
ENDCHAR

STARTCHAR less
ENCODING 60
SWIDTH 606 0
DWIDTH 8 0
BBX 7 7 1 0
BITMAP
06
18
60
80
60
18
06
ENDCHAR

STARTCHAR equal
ENCODING 61
SWIDTH 606 0
DWIDTH 8 0
BBX 7 4 1 2
BITMAP
FE
00
00
FE
ENDCHAR

STARTCHAR greater
ENCODING 62
SWIDTH 606 0
DWIDTH 8 0
BBX 7 7 1 0
BITMAP
C0
30
0C
02
0C
30
C0
ENDCHAR

STARTCHAR question
ENCODING 63
SWIDTH 444 0
DWIDTH 6 0
BBX 5 11 1 0
BITMAP
70
88
88
88
10
20
40
40
00
00
40
ENDCHAR

STARTCHAR at
ENCODING 64
SWIDTH 737 0
DWIDTH 10 0
BBX 9 11 1 0
BITMAP
3E00
4100
8080
9A80
A480
A480
A480
A500
9A80
4100
3E00
ENDCHAR

STARTCHAR A
ENCODING 65
SWIDTH 722 0
DWIDTH 10 0
BBX 10 11 0 0
BITMAP
0800
0C00
0C00
1200
1200
1200
3F00
2100
4180
4080
F3C0
ENDCHAR

STARTCHAR B
ENCODING 66
SWIDTH 722 0
DWIDTH 10 0
BBX 9 11 0 0
BITMAP
FF00
2180
2080
2080
2100
3F00
2180
2080
2080
2100
FE00
ENDCHAR

STARTCHAR C
ENCODING 67
SWIDTH 722 0
DWIDTH 10 0
BBX 8 11 1 0
BITMAP
3D
43
41
81
81
80
80
81
81
42
3C
ENDCHAR

STARTCHAR D
ENCODING 68
SWIDTH 778 0
DWIDTH 11 0
BBX 10 11 0 0
BITMAP
FE00
2180
2080
2040
2040
2040
2040
2040
2080
2180
FE00
ENDCHAR

STARTCHAR E
ENCODING 69
SWIDTH 722 0
DWIDTH 10 0
BBX 9 11 0 0
BITMAP
FF80
2180
2080
2480
2400
3C00
2400
2480
2080
2180
FF80
ENDCHAR

STARTCHAR F
ENCODING 70
SWIDTH 667 0
DWIDTH 10 0
BBX 9 11 0 0
BITMAP
FF80
2180
2080
2480
2400
3C00
2400
2400
2000
2000
F800
ENDCHAR

STARTCHAR G
ENCODING 71
SWIDTH 778 0
DWIDTH 11 0
BBX 9 11 1 0
BITMAP
3D00
4300
4300
8100
8100
8000
8780
8100
4100
6300
3D00
ENDCHAR

STARTCHAR H
ENCODING 72
SWIDTH 833 0
DWIDTH 12 0
BBX 11 11 0 0
BITMAP
F9E0
2080
2080
2080
2080
3F80
2080
2080
2080
2080
FBE0
ENDCHAR

STARTCHAR I
ENCODING 73
SWIDTH 407 0
DWIDTH 6 0
BBX 5 11 0 0
BITMAP
F8
20
20
20
20
20
20
20
20
20
F8
ENDCHAR

STARTCHAR J
ENCODING 74
SWIDTH 556 0
DWIDTH 8 0
BBX 7 11 0 0
BITMAP
3E
08
08
08
08
08
08
88
88
88
70
ENDCHAR

STARTCHAR K
ENCODING 75
SWIDTH 778 0
DWIDTH 11 0
BBX 11 11 0 0
BITMAP
FBC0
2100
2200
2400
2800
3C00
3600
2200
2100
2180
FBE0
ENDCHAR

STARTCHAR L
ENCODING 76
SWIDTH 667 0
DWIDTH 9 0
BBX 9 11 0 0
BITMAP
F800
2000
2000
2000
2000
2000
2000
2080
2080
2180
FF80
ENDCHAR

STARTCHAR M
ENCODING 77
SWIDTH 944 0
DWIDTH 13 0
BBX 13 11 0 0
BITMAP
F078
3060
28A0
28A0
28A0
25A0
2520
2520
2320
2220
FAF8
ENDCHAR

STARTCHAR N
ENCODING 78
SWIDTH 815 0
DWIDTH 11 0
BBX 12 11 0 0
BITMAP
E1F0
3040
2840
2840
2440
2240
2340
2140
20C0
2040
F840
ENDCHAR

STARTCHAR O
ENCODING 79
SWIDTH 778 0
DWIDTH 11 0
BBX 9 11 1 0
BITMAP
1C00
6300
4100
8080
8080
8080
8080
8080
4100
6300
1C00
ENDCHAR

STARTCHAR P
ENCODING 80
SWIDTH 667 0
DWIDTH 9 0
BBX 9 11 0 0
BITMAP
FF00
2180
2080
2080
2180
3F00
2000
2000
2000
2000
F800
ENDCHAR

STARTCHAR Q
ENCODING 81
SWIDTH 778 0
DWIDTH 11 0
BBX 9 14 1 -3
BITMAP
1C00
6300
4100
8080
8080
8080
8080
BC80
C300
4300
3E00
0280
0280
0100
ENDCHAR

STARTCHAR R
ENCODING 82
SWIDTH 722 0
DWIDTH 10 0
BBX 9 11 1 0
BITMAP
FE00
2100
2100
2100
2300
3E00
2200
2200
2280
2280
F980
ENDCHAR

STARTCHAR S
ENCODING 83
SWIDTH 630 0
DWIDTH 9 0
BBX 7 11 1 0
BITMAP
7A
C6
82
82
E0
3C
06
82
82
C6
BC
ENDCHAR

STARTCHAR T
ENCODING 84
SWIDTH 667 0
DWIDTH 9 0
BBX 9 11 0 0
BITMAP
FF80
C980
8880
8880
0800
0800
0800
0800
0800
0800
3E00
ENDCHAR

STARTCHAR U
ENCODING 85
SWIDTH 815 0
DWIDTH 11 0
BBX 11 11 0 0
BITMAP
F3E0
4080
4080
4080
4080
4080
4080
4080
4080
2100
1E00
ENDCHAR

STARTCHAR V
ENCODING 86
SWIDTH 722 0
DWIDTH 10 0
BBX 10 11 0 0
BITMAP
F1C0
2080
2080
3180
1100
1100
0A00
0A00
0A00
0400
0400
ENDCHAR

STARTCHAR W
ENCODING 87
SWIDTH 981 0
DWIDTH 14 0
BBX 14 11 0 0
BITMAP
F7BC
2118
2110
2310
1290
14A0
14A0
0CA0
0C60
0840
0840
ENDCHAR

STARTCHAR X
ENCODING 88
SWIDTH 704 0
DWIDTH 10 0
BBX 10 11 0 0
BITMAP
F3C0
2100
1200
1E00
0C00
0C00
1400
1200
2300
6100
F3C0
ENDCHAR

STARTCHAR Y
ENCODING 89
SWIDTH 704 0
DWIDTH 10 0
BBX 9 11 0 0
BITMAP
E380
4100
2200
1400
0800
0800
0800
0800
0800
0800
3E00
ENDCHAR

STARTCHAR Z
ENCODING 90
SWIDTH 611 0
DWIDTH 9 0
BBX 7 11 1 0
BITMAP
FE
C4
84
88
18
10
30
22
42
46
FE
ENDCHAR

STARTCHAR bracketleft
ENCODING 91
SWIDTH 333 0
DWIDTH 5 0
BBX 3 13 1 -2
BITMAP
E0
80
80
80
80
80
80
80
80
80
80
80
E0
ENDCHAR

STARTCHAR backslash
ENCODING 92
SWIDTH 606 0
DWIDTH 8 0
BBX 6 11 1 0
BITMAP
80
40
40
20
20
10
10
08
08
04
04
ENDCHAR

STARTCHAR bracketright
ENCODING 93
SWIDTH 333 0
DWIDTH 5 0
BBX 3 13 1 -2
BITMAP
E0
20
20
20
20
20
20
20
20
20
20
20
E0
ENDCHAR

STARTCHAR asciicircum
ENCODING 94
SWIDTH 606 0
DWIDTH 8 0
BBX 7 5 1 6
BITMAP
10
28
44
44
82
ENDCHAR

STARTCHAR underscore
ENCODING 95
SWIDTH 500 0
DWIDTH 7 0
BBX 7 1 0 -2
BITMAP
FE
ENDCHAR

STARTCHAR quoteleft
ENCODING 96
SWIDTH 204 0
DWIDTH 3 0
BBX 1 3 1 8
BITMAP
80
80
80
ENDCHAR

STARTCHAR a
ENCODING 97
SWIDTH 556 0
DWIDTH 8 0
BBX 6 7 1 0
BITMAP
70
88
08
78
88
88
FC
ENDCHAR

STARTCHAR b
ENCODING 98
SWIDTH 556 0
DWIDTH 8 0
BBX 7 11 0 0
BITMAP
C0
40
40
40
7C
66
42
42
42
66
5C
ENDCHAR

STARTCHAR c
ENCODING 99
SWIDTH 444 0
DWIDTH 6 0
BBX 5 7 1 0
BITMAP
70
48
88
80
80
C8
70
ENDCHAR

STARTCHAR d
ENCODING 100
SWIDTH 574 0
DWIDTH 8 0
BBX 7 11 1 0
BITMAP
0C
04
04
04
74
4C
84
84
84
CC
7E
ENDCHAR

STARTCHAR e
ENCODING 101
SWIDTH 500 0
DWIDTH 7 0
BBX 6 7 1 0
BITMAP
78
44
84
FC
80
C4
78
ENDCHAR

STARTCHAR f
ENCODING 102
SWIDTH 333 0
DWIDTH 5 0
BBX 5 11 1 0
BITMAP
38
40
40
40
F0
40
40
40
40
40
E0
ENDCHAR

STARTCHAR g
ENCODING 103
SWIDTH 537 0
DWIDTH 8 0
BBX 6 10 1 -3
BITMAP
7C
88
88
88
70
80
FC
84
84
78
ENDCHAR

STARTCHAR h
ENCODING 104
SWIDTH 611 0
DWIDTH 9 0
BBX 7 11 1 0
BITMAP
C0
40
40
40
78
64
44
44
44
44
EE
ENDCHAR

STARTCHAR i
ENCODING 105
SWIDTH 315 0
DWIDTH 4 0
BBX 3 11 1 0
BITMAP
40
00
00
00
C0
40
40
40
40
40
E0
ENDCHAR

STARTCHAR j
ENCODING 106
SWIDTH 296 0
DWIDTH 4 0
BBX 4 14 0 -3
BITMAP
10
00
00
00
30
10
10
10
10
10
10
10
10
E0
ENDCHAR

STARTCHAR k
ENCODING 107
SWIDTH 593 0
DWIDTH 8 0
BBX 8 11 0 0
BITMAP
C0
40
40
40
5E
48
50
70
48
44
EF
ENDCHAR

STARTCHAR l
ENCODING 108
SWIDTH 315 0
DWIDTH 4 0
BBX 3 11 1 0
BITMAP
C0
40
40
40
40
40
40
40
40
40
E0
ENDCHAR

STARTCHAR m
ENCODING 109
SWIDTH 889 0
DWIDTH 12 0
BBX 11 7 1 0
BITMAP
FB80
6640
4440
4440
4440
4440
EEE0
ENDCHAR

STARTCHAR n
ENCODING 110
SWIDTH 611 0
DWIDTH 9 0
BBX 7 7 1 0
BITMAP
F8
64
44
44
44
44
EE
ENDCHAR

STARTCHAR o
ENCODING 111
SWIDTH 500 0
DWIDTH 7 0
BBX 6 7 1 0
BITMAP
78
48
84
84
84
48
78
ENDCHAR

STARTCHAR p
ENCODING 112
SWIDTH 574 0
DWIDTH 8 0
BBX 7 10 0 -3
BITMAP
FC
64
42
42
42
64
7C
40
40
E0
ENDCHAR

STARTCHAR q
ENCODING 113
SWIDTH 556 0
DWIDTH 8 0
BBX 7 10 1 -3
BITMAP
74
4C
84
84
84
CC
7C
04
04
0E
ENDCHAR

STARTCHAR r
ENCODING 114
SWIDTH 444 0
DWIDTH 6 0
BBX 5 7 1 0
BITMAP
D8
60
40
40
40
40
E0
ENDCHAR

STARTCHAR s
ENCODING 115
SWIDTH 463 0
DWIDTH 6 0
BBX 5 7 1 0
BITMAP
78
88
80
70
08
88
F0
ENDCHAR

STARTCHAR t
ENCODING 116
SWIDTH 389 0
DWIDTH 5 0
BBX 5 10 0 0
BITMAP
40
40
40
F8
40
40
40
48
48
70
ENDCHAR

STARTCHAR u
ENCODING 117
SWIDTH 611 0
DWIDTH 9 0
BBX 7 7 1 0
BITMAP
CC
44
44
44
44
44
3E
ENDCHAR

STARTCHAR v
ENCODING 118
SWIDTH 537 0
DWIDTH 8 0
BBX 7 7 0 0
BITMAP
EE
46
24
24
18
18
10
ENDCHAR

STARTCHAR w
ENCODING 119
SWIDTH 778 0
DWIDTH 11 0
BBX 10 7 0 0
BITMAP
EEC0
4440
2C80
2A80
2A80
1100
1100
ENDCHAR

STARTCHAR x
ENCODING 120
SWIDTH 537 0
DWIDTH 8 0
BBX 7 7 0 0
BITMAP
EE
44
28
10
28
44
EE
ENDCHAR

STARTCHAR y
ENCODING 121
SWIDTH 537 0
DWIDTH 8 0
BBX 7 10 0 -3
BITMAP
E6
62
24
24
14
18
18
10
30
E0
ENDCHAR

STARTCHAR z
ENCODING 122
SWIDTH 481 0
DWIDTH 7 0
BBX 6 7 0 0
BITMAP
FC
88
90
30
24
44
FC
ENDCHAR

STARTCHAR braceleft
ENCODING 123
SWIDTH 333 0
DWIDTH 5 0
BBX 3 13 1 -2
BITMAP
60
40
40
40
40
40
80
40
40
40
40
40
60
ENDCHAR

STARTCHAR bar
ENCODING 124
SWIDTH 606 0
DWIDTH 8 0
BBX 1 11 4 0
BITMAP
80
80
80
80
80
80
80
80
80
80
80
ENDCHAR

STARTCHAR braceright
ENCODING 125
SWIDTH 333 0
DWIDTH 5 0
BBX 3 13 1 -2
BITMAP
C0
40
40
40
40
40
20
40
40
40
40
40
C0
ENDCHAR

STARTCHAR asciitilde
ENCODING 126
SWIDTH 606 0
DWIDTH 8 0
BBX 7 2 1 2
BITMAP
72
9C
ENDCHAR

STARTCHAR exclamdown
ENCODING 161
SWIDTH 296 0
DWIDTH 4 0
BBX 1 10 2 -3
BITMAP
80
00
00
80
80
80
80
80
80
80
ENDCHAR

STARTCHAR cent
ENCODING 162
SWIDTH 556 0
DWIDTH 8 0
BBX 5 10 1 -2
BITMAP
08
78
58
90
A0
A0
C8
70
80
80
ENDCHAR

STARTCHAR sterling
ENCODING 163
SWIDTH 556 0
DWIDTH 8 0
BBX 6 11 1 0
BITMAP
38
44
44
44
20
F8
20
20
E0
A4
F8
ENDCHAR

STARTCHAR currency
ENCODING 164
SWIDTH 556 0
DWIDTH 8 0
BBX 7 7 1 1
BITMAP
BA
44
82
82
82
44
BA
ENDCHAR

STARTCHAR yen
ENCODING 165
SWIDTH 556 0
DWIDTH 10 0
BBX 9 11 0 0
BITMAP
E380
4100
2200
1400
0800
0800
3E00
0800
3E00
0800
3E00
ENDCHAR

STARTCHAR brokenbar
ENCODING 166
SWIDTH 606 0
DWIDTH 8 0
BBX 1 11 4 0
BITMAP
80
80
80
80
80
00
80
80
80
80
80
ENDCHAR

STARTCHAR section
ENCODING 167
SWIDTH 500 0
DWIDTH 7 0
BBX 6 14 1 -3
BITMAP
30
48
48
20
70
88
84
44
38
10
08
48
48
30
ENDCHAR

STARTCHAR dieresis
ENCODING 168
SWIDTH 333 0
DWIDTH 5 0
BBX 4 1 0 8
BITMAP
90
ENDCHAR

STARTCHAR copyright
ENCODING 169
SWIDTH 737 0
DWIDTH 10 0
BBX 11 11 0 0
BITMAP
1F00
2080
4F40
8920
9120
9020
9120
9120
4E40
2080
1F00
ENDCHAR

STARTCHAR ordfeminine
ENCODING 170
SWIDTH 334 0
DWIDTH 5 0
BBX 5 6 0 5
BITMAP
70
10
70
50
70
F8
ENDCHAR

STARTCHAR guillemotleft
ENCODING 171
SWIDTH 426 0
DWIDTH 6 0
BBX 4 4 1 1
BITMAP
50
A0
A0
50
ENDCHAR

STARTCHAR logicalnot
ENCODING 172
SWIDTH 606 0
DWIDTH 8 0
BBX 7 4 1 0
BITMAP
FE
02
02
02
ENDCHAR

STARTCHAR hyphen
ENCODING 173
SWIDTH 333 0
DWIDTH 5 0
BBX 3 1 1 3
BITMAP
E0
ENDCHAR

STARTCHAR registered
ENCODING 174
SWIDTH 737 0
DWIDTH 10 0
BBX 11 11 0 0
BITMAP
1F00
2080
5E40
8920
8920
8E20
8920
8920
5DC0
2080
1F00
ENDCHAR

STARTCHAR macron
ENCODING 175
SWIDTH 333 0
DWIDTH 5 0
BBX 4 1 0 8
BITMAP
F0
ENDCHAR

STARTCHAR degree
ENCODING 176
SWIDTH 400 0
DWIDTH 8 0
BBX 5 5 2 5
BITMAP
70
88
88
88
70
ENDCHAR

STARTCHAR plusminus
ENCODING 177
SWIDTH 606 0
DWIDTH 8 0
BBX 7 9 1 0
BITMAP
10
10
10
FE
10
10
10
00
FE
ENDCHAR

STARTCHAR twosuperior
ENCODING 178
SWIDTH 333 0
DWIDTH 5 0
BBX 4 6 -5 5
BITMAP
60
90
90
20
40
F0
ENDCHAR

STARTCHAR threesuperior
ENCODING 179
SWIDTH 333 0
DWIDTH 5 0
BBX 4 6 -5 5
BITMAP
60
90
70
10
90
60
ENDCHAR

STARTCHAR acute
ENCODING 180
SWIDTH 333 0
DWIDTH 5 0
BBX 3 3 1 8
BITMAP
20
40
80
ENDCHAR

STARTCHAR mu
ENCODING 181
SWIDTH 611 0
DWIDTH 8 0
BBX 7 10 1 -3
BITMAP
88
88
88
88
88
8A
FE
80
80
80
ENDCHAR

STARTCHAR paragraph
ENCODING 182
SWIDTH 606 0
DWIDTH 8 0
BBX 6 14 1 -3
BITMAP
7C
A8
A8
A8
A8
A8
68
28
28
28
28
28
28
7C
ENDCHAR

STARTCHAR periodcentered
ENCODING 183
SWIDTH 278 0
DWIDTH 7 0
BBX 1 1 3 4
BITMAP
80
ENDCHAR

STARTCHAR cedilla
ENCODING 184
SWIDTH 333 0
DWIDTH 5 0
BBX 3 4 0 -3
BITMAP
40
60
20
E0
ENDCHAR

STARTCHAR onesuperior
ENCODING 185
SWIDTH 333 0
DWIDTH 5 0
BBX 3 6 -5 5
BITMAP
40
C0
40
40
40
E0
ENDCHAR

STARTCHAR ordmasculine
ENCODING 186
SWIDTH 300 0
DWIDTH 4 0
BBX 4 6 0 5
BITMAP
60
90
90
90
60
F0
ENDCHAR

STARTCHAR guillemotright
ENCODING 187
SWIDTH 426 0
DWIDTH 6 0
BBX 4 4 1 1
BITMAP
A0
50
50
A0
ENDCHAR

STARTCHAR onequarter
ENCODING 188
SWIDTH 834 0
DWIDTH 12 0
BBX 11 11 1 0
BITMAP
4180
C100
4200
4200
4400
EC40
08C0
10C0
3140
21E0
4040
ENDCHAR

STARTCHAR onehalf
ENCODING 189
SWIDTH 834 0
DWIDTH 12 0
BBX 10 11 1 0
BITMAP
4180
C100
4200
4200
4400
ED80
0A40
1240
3080
2100
43C0
ENDCHAR

STARTCHAR threequarters
ENCODING 190
SWIDTH 834 0
DWIDTH 12 0
BBX 12 11 2 0
BITMAP
60C0
9080
7100
1100
9200
6620
0460
0860
18A0
10F0
2020
ENDCHAR

STARTCHAR questiondown
ENCODING 191
SWIDTH 444 0
DWIDTH 6 0
BBX 5 10 1 -3
BITMAP
10
00
00
10
10
20
48
88
88
70
ENDCHAR

STARTCHAR Agrave
ENCODING 192
SWIDTH 722 0
DWIDTH 10 0
BBX 10 14 0 0
BITMAP
1000
0800
0000
0800
0C00
0C00
1200
1200
1200
3F00
2100
4180
4080
F3C0
ENDCHAR

STARTCHAR Aacute
ENCODING 193
SWIDTH 722 0
DWIDTH 10 0
BBX 10 14 0 0
BITMAP
0200
0400
0000
0800
0C00
0C00
1200
1200
1200
3F00
2100
4180
4080
F3C0
ENDCHAR

STARTCHAR Acircumflex
ENCODING 194
SWIDTH 722 0
DWIDTH 10 0
BBX 10 14 0 0
BITMAP
0C00
1200
0000
0800
0C00
0C00
1200
1200
1200
3F00
2100
4180
4080
F3C0
ENDCHAR

STARTCHAR Atilde
ENCODING 195
SWIDTH 722 0
DWIDTH 10 0
BBX 10 14 0 0
BITMAP
1A00
1600
0000
0800
0C00
0C00
1200
1200
1200
3F00
2100
4180
4080
F3C0
ENDCHAR

STARTCHAR Adieresis
ENCODING 196
SWIDTH 722 0
DWIDTH 10 0
BBX 10 13 0 0
BITMAP
1200
0000
0800
0C00
0C00
1200
1200
1200
3F00
2100
4180
4080
F3C0
ENDCHAR

STARTCHAR Aring
ENCODING 197
SWIDTH 722 0
DWIDTH 10 0
BBX 10 16 0 0
BITMAP
0C00
1200
1200
0C00
0000
0800
0C00
0C00
1200
1200
1200
3F00
2100
4180
4080
F3C0
ENDCHAR

STARTCHAR AE
ENCODING 198
SWIDTH 1000 0
DWIDTH 14 0
BBX 14 11 0 0
BITMAP
1FFC
050C
0904
0924
1120
21E0
3F20
2124
4104
410C
E7FC
ENDCHAR

STARTCHAR Ccedilla
ENCODING 199
SWIDTH 722 0
DWIDTH 10 0
BBX 8 15 1 -4
BITMAP
3D
43
43
81
81
80
80
81
81
42
3C
10
18
08
38
ENDCHAR

STARTCHAR Egrave
ENCODING 200
SWIDTH 722 0
DWIDTH 10 0
BBX 9 14 0 0
BITMAP
1000
0800
0000
FF80
2180
2080
2480
2400
3C00
2400
2480
2080
2180
FF80
ENDCHAR

STARTCHAR Eacute
ENCODING 201
SWIDTH 722 0
DWIDTH 10 0
BBX 9 14 0 0
BITMAP
0200
0400
0000
FF80
2180
2080
2480
2400
3C00
2400
2480
2080
2180
FF80
ENDCHAR

STARTCHAR Ecircumflex
ENCODING 202
SWIDTH 722 0
DWIDTH 10 0
BBX 9 14 0 0
BITMAP
0C00
1200
0000
FF80
2180
2080
2480
2400
3C00
2400
2480
2080
2180
FF80
ENDCHAR

STARTCHAR Edieresis
ENCODING 203
SWIDTH 722 0
DWIDTH 10 0
BBX 9 13 0 0
BITMAP
1200
0000
FF80
2180
2080
2480
2400
3C00
2400
2480
2080
2180
FF80
ENDCHAR

STARTCHAR Igrave
ENCODING 204
SWIDTH 407 0
DWIDTH 6 0
BBX 5 14 0 0
BITMAP
40
20
00
F8
20
20
20
20
20
20
20
20
20
F8
ENDCHAR

STARTCHAR Iacute
ENCODING 205
SWIDTH 407 0
DWIDTH 6 0
BBX 5 14 0 0
BITMAP
10
20
00
F8
20
20
20
20
20
20
20
20
20
F8
ENDCHAR

STARTCHAR Icircumflex
ENCODING 206
SWIDTH 407 0
DWIDTH 6 0
BBX 5 14 0 0
BITMAP
60
90
00
F8
20
20
20
20
20
20
20
20
20
F8
ENDCHAR

STARTCHAR Idieresis
ENCODING 207
SWIDTH 407 0
DWIDTH 6 0
BBX 5 13 0 0
BITMAP
90
00
F8
20
20
20
20
20
20
20
20
20
F8
ENDCHAR

STARTCHAR Eth
ENCODING 208
SWIDTH 778 0
DWIDTH 11 0
BBX 10 11 0 0
BITMAP
FE00
2180
2080
2040
FC40
2040
2040
2040
2080
2180
FE00
ENDCHAR

STARTCHAR Ntilde
ENCODING 209
SWIDTH 815 0
DWIDTH 11 0
BBX 12 14 0 0
BITMAP
0D00
0B00
0000
E1F0
3040
2840
2840
2440
2240
2340
2140
20C0
2040
F840
ENDCHAR

STARTCHAR Ograve
ENCODING 210
SWIDTH 778 0
DWIDTH 11 0
BBX 9 14 1 0
BITMAP
1000
0800
0000
1C00
6300
4100
8080
8080
8080
8080
8080
4100
6300
1C00
ENDCHAR

STARTCHAR Oacute
ENCODING 211
SWIDTH 778 0
DWIDTH 11 0
BBX 9 14 1 0
BITMAP
0200
0400
0000
1C00
6300
4100
8080
8080
8080
8080
8080
4100
6300
1C00
ENDCHAR

STARTCHAR Ocircumflex
ENCODING 212
SWIDTH 778 0
DWIDTH 11 0
BBX 9 14 1 0
BITMAP
1800
2400
0000
1C00
6300
4100
8080
8080
8080
8080
8080
4100
6300
1C00
ENDCHAR

STARTCHAR Otilde
ENCODING 213
SWIDTH 778 0
DWIDTH 11 0
BBX 9 14 1 0
BITMAP
3400
2C00
0000
1C00
6300
4100
8080
8080
8080
8080
8080
4100
6300
1C00
ENDCHAR

STARTCHAR Odieresis
ENCODING 214
SWIDTH 778 0
DWIDTH 11 0
BBX 9 13 1 0
BITMAP
2400
0000
1C00
6300
4100
8080
8080
8080
8080
8080
4100
6300
1C00
ENDCHAR

STARTCHAR multiply
ENCODING 215
SWIDTH 606 0
DWIDTH 8 0
BBX 6 6 1 1
BITMAP
84
48
30
30
48
84
ENDCHAR

STARTCHAR Oslash
ENCODING 216
SWIDTH 778 0
DWIDTH 11 0
BBX 10 11 1 0
BITMAP
1CC0
6380
4300
8280
8480
8880
9880
9080
6100
6300
9C00
ENDCHAR

STARTCHAR Ugrave
ENCODING 217
SWIDTH 815 0
DWIDTH 11 0
BBX 11 14 0 0
BITMAP
0800
0400
0000
F3E0
4080
4080
4080
4080
4080
4080
4080
4080
2100
1E00
ENDCHAR

STARTCHAR Uacute
ENCODING 218
SWIDTH 815 0
DWIDTH 11 0
BBX 11 14 0 0
BITMAP
0200
0400
0000
F3E0
4080
4080
4080
4080
4080
4080
4080
4080
2100
1E00
ENDCHAR

STARTCHAR Ucircumflex
ENCODING 219
SWIDTH 815 0
DWIDTH 11 0
BBX 11 14 0 0
BITMAP
0C00
1200
0000
F3E0
4080
4080
4080
4080
4080
4080
4080
4080
6100
1E00
ENDCHAR

STARTCHAR Udieresis
ENCODING 220
SWIDTH 815 0
DWIDTH 11 0
BBX 11 13 0 0
BITMAP
1200
0000
F3E0
4080
4080
4080
4080
4080
4080
4080
4080
2100
1E00
ENDCHAR

STARTCHAR Yacute
ENCODING 221
SWIDTH 704 0
DWIDTH 10 0
BBX 9 14 0 0
BITMAP
0200
0C00
0000
E380
4100
2200
1400
0800
0800
0800
0800
0800
0800
3E00
ENDCHAR

STARTCHAR Thorn
ENCODING 222
SWIDTH 667 0
DWIDTH 9 0
BBX 9 11 0 0
BITMAP
F800
2000
2000
3E00
2180
2080
2180
3E00
2000
2000
F800
ENDCHAR

STARTCHAR germandbls
ENCODING 223
SWIDTH 574 0
DWIDTH 8 0
BBX 6 11 1 0
BITMAP
38
44
44
44
58
44
44
44
44
44
D8
ENDCHAR

STARTCHAR agrave
ENCODING 224
SWIDTH 556 0
DWIDTH 8 0
BBX 6 10 1 0
BITMAP
40
20
00
70
88
08
78
88
88
FC
ENDCHAR

STARTCHAR aacute
ENCODING 225
SWIDTH 556 0
DWIDTH 8 0
BBX 6 10 1 0
BITMAP
08
10
00
70
88
08
78
88
88
FC
ENDCHAR

STARTCHAR acircumflex
ENCODING 226
SWIDTH 556 0
DWIDTH 8 0
BBX 6 10 1 0
BITMAP
30
48
00
70
88
08
78
88
88
FC
ENDCHAR

STARTCHAR atilde
ENCODING 227
SWIDTH 556 0
DWIDTH 8 0
BBX 6 10 1 0
BITMAP
68
58
00
70
88
08
78
88
88
FC
ENDCHAR

STARTCHAR adieresis
ENCODING 228
SWIDTH 556 0
DWIDTH 8 0
BBX 6 9 1 0
BITMAP
48
00
70
88
08
78
88
88
FC
ENDCHAR

STARTCHAR aring
ENCODING 229
SWIDTH 556 0
DWIDTH 8 0
BBX 6 12 1 0
BITMAP
20
50
50
20
00
70
88
08
78
88
88
FC
ENDCHAR

STARTCHAR ae
ENCODING 230
SWIDTH 796 0
DWIDTH 11 0
BBX 9 7 1 0
BITMAP
7700
8880
0880
7F80
8800
8880
F700
ENDCHAR

STARTCHAR ccedilla
ENCODING 231
SWIDTH 444 0
DWIDTH 6 0
BBX 5 11 1 -4
BITMAP
70
48
88
80
80
88
70
20
30
10
70
ENDCHAR

STARTCHAR egrave
ENCODING 232
SWIDTH 500 0
DWIDTH 7 0
BBX 6 10 1 0
BITMAP
40
30
00
78
44
84
FC
80
C4
78
ENDCHAR

STARTCHAR eacute
ENCODING 233
SWIDTH 500 0
DWIDTH 7 0
BBX 6 10 1 0
BITMAP
08
30
00
78
44
84
FC
80
C4
78
ENDCHAR

STARTCHAR ecircumflex
ENCODING 234
SWIDTH 500 0
DWIDTH 7 0
BBX 6 10 1 0
BITMAP
30
48
00
78
44
84
FC
80
C4
78
ENDCHAR

STARTCHAR edieresis
ENCODING 235
SWIDTH 500 0
DWIDTH 7 0
BBX 6 9 1 0
BITMAP
48
00
78
44
84
FC
80
C4
78
ENDCHAR

STARTCHAR igrave
ENCODING 236
SWIDTH 315 0
DWIDTH 4 0
BBX 3 10 1 0
BITMAP
80
40
00
C0
40
40
40
40
40
E0
ENDCHAR

STARTCHAR iacute
ENCODING 237
SWIDTH 315 0
DWIDTH 4 0
BBX 4 10 1 0
BITMAP
10
20
00
C0
40
40
40
40
40
E0
ENDCHAR

STARTCHAR icircumflex
ENCODING 238
SWIDTH 315 0
DWIDTH 4 0
BBX 4 10 1 0
BITMAP
60
90
00
C0
40
40
40
40
40
E0
ENDCHAR

STARTCHAR idieresis
ENCODING 239
SWIDTH 315 0
DWIDTH 4 0
BBX 4 9 1 0
BITMAP
90
00
C0
40
40
40
40
40
E0
ENDCHAR

STARTCHAR eth
ENCODING 240
SWIDTH 500 0
DWIDTH 7 0
BBX 6 11 0 0
BITMAP
80
70
E0
10
38
4C
84
84
84
CC
78
ENDCHAR

STARTCHAR ntilde
ENCODING 241
SWIDTH 611 0
DWIDTH 9 0
BBX 7 10 1 0
BITMAP
68
58
00
F8
64
44
44
44
44
EE
ENDCHAR

STARTCHAR ograve
ENCODING 242
SWIDTH 500 0
DWIDTH 7 0
BBX 6 10 1 0
BITMAP
40
20
00
78
48
84
84
84
48
78
ENDCHAR

STARTCHAR oacute
ENCODING 243
SWIDTH 500 0
DWIDTH 7 0
BBX 6 10 1 0
BITMAP
08
10
00
78
48
84
84
84
48
78
ENDCHAR

STARTCHAR ocircumflex
ENCODING 244
SWIDTH 500 0
DWIDTH 7 0
BBX 6 10 1 0
BITMAP
30
48
00
78
48
84
84
84
48
78
ENDCHAR

STARTCHAR otilde
ENCODING 245
SWIDTH 500 0
DWIDTH 7 0
BBX 6 10 1 0
BITMAP
68
58
00
78
48
84
84
84
48
78
ENDCHAR

STARTCHAR odieresis
ENCODING 246
SWIDTH 500 0
DWIDTH 7 0
BBX 6 9 1 0
BITMAP
48
00
78
48
84
84
84
48
78
ENDCHAR

STARTCHAR divide
ENCODING 247
SWIDTH 606 0
DWIDTH 8 0
BBX 7 5 1 2
BITMAP
10
00
FE
00
10
ENDCHAR

STARTCHAR oslash
ENCODING 248
SWIDTH 500 0
DWIDTH 7 0
BBX 7 9 1 -1
BITMAP
06
7C
48
8C
94
94
68
78
80
ENDCHAR

STARTCHAR ugrave
ENCODING 249
SWIDTH 611 0
DWIDTH 9 0
BBX 7 10 1 0
BITMAP
40
20
00
CC
44
44
44
44
44
3E
ENDCHAR

STARTCHAR uacute
ENCODING 250
SWIDTH 611 0
DWIDTH 9 0
BBX 7 10 1 0
BITMAP
08
10
00
CC
44
44
44
44
44
3E
ENDCHAR

STARTCHAR ucircumflex
ENCODING 251
SWIDTH 611 0
DWIDTH 9 0
BBX 7 10 1 0
BITMAP
30
48
00
CC
44
44
44
44
44
3E
ENDCHAR

STARTCHAR udieresis
ENCODING 252
SWIDTH 611 0
DWIDTH 9 0
BBX 7 9 1 0
BITMAP
48
00
CC
44
44
44
44
44
3E
ENDCHAR

STARTCHAR yacute
ENCODING 253
SWIDTH 537 0
DWIDTH 8 0
BBX 7 13 0 -3
BITMAP
04
08
00
E6
62
24
24
14
18
18
10
30
E0
ENDCHAR

STARTCHAR thorn
ENCODING 254
SWIDTH 574 0
DWIDTH 8 0
BBX 7 14 0 -3
BITMAP
C0
40
40
40
7C
64
42
42
42
64
7C
40
40
E0
ENDCHAR

STARTCHAR ydieresis
ENCODING 255
SWIDTH 537 0
DWIDTH 8 0
BBX 7 12 0 -3
BITMAP
24
00
E6
62
24
24
14
18
18
10
30
E0
ENDCHAR
ENDFONT
